<svg width="48" height="47" viewBox="0 0 48 47" fill="none" xmlns="http://www.w3.org/2000/svg">
<g id="Outlined / Communication / call">
<path id="&#240;&#159;&#148;&#185; Icon Color" fill-rule="evenodd" clip-rule="evenodd" d="M13.08 9.63464C13.2 11.3496 13.5 13.0261 13.98 14.6254L11.58 16.9377C10.76 14.6254 10.24 12.1782 10.06 9.63464H13.08ZM32.8 32.7965C34.5 33.2589 36.24 33.548 38 33.6636V36.5347C35.36 36.3613 32.82 35.8603 30.4 35.0895L32.8 32.7965ZM15 5.78076H8C6.9 5.78076 6 6.64788 6 7.7077C6 25.8017 21.22 40.4657 40 40.4657C41.1 40.4657 42 39.5986 42 38.5387V31.8137C42 30.7539 41.1 29.8868 40 29.8868C37.52 29.8868 35.1 29.5014 32.86 28.7884C32.66 28.7114 32.44 28.6921 32.24 28.6921C31.72 28.6921 31.22 28.8848 30.82 29.2509L26.42 33.4902C20.76 30.6961 16.12 26.2449 13.24 20.7916L17.64 16.5524C18.2 16.0128 18.36 15.2613 18.14 14.5869C17.4 12.4287 17 10.1164 17 7.7077C17 6.64788 16.1 5.78076 15 5.78076Z" fill="#FF8D00"/>
</g>
</svg>
