<svg width="48" height="48" viewBox="0 0 48 48" fill="none" xmlns="http://www.w3.org/2000/svg">
<g id="mingcute:factory-line" clip-path="url(#clip0_266_8168)">
<g id="Group">
<path id="Vector" fill-rule="evenodd" clip-rule="evenodd" d="M25 6C26.64 6 27.98 7.308 28.012 8.952L28.06 10.624L28.114 11.974L28.228 14.134L28.306 15.356L28.35 16H32.868C34.68 16 35.978 17.546 35.928 19.19L35.918 20.09L35.928 20.65L35.948 21.28L35.988 21.982L36.042 22.754L36.12 23.594L36.22 24.506L36.348 25.482L36.506 26.528L36.596 27.074L36.802 28.218L37.044 29.426C37.394 31.08 37.848 32.906 38.436 34.896L38.902 36.416C39.066 36.936 39.24 37.462 39.422 38H42C42.5304 38 43.0391 38.2107 43.4142 38.5858C43.7893 38.9609 44 39.4696 44 40C44 40.5304 43.7893 41.0391 43.4142 41.4142C43.0391 41.7893 42.5304 42 42 42H6C5.46957 42 4.96086 41.7893 4.58579 41.4142C4.21071 41.0391 4 40.5304 4 40C4 39.4696 4.21071 38.9609 4.58579 38.5858C4.96086 38.2107 5.46957 38 6 38H8.514C9.884 33.284 10.74 28.606 11.268 24.398L11.462 22.74L11.624 21.14L11.694 20.362L11.814 18.858L11.906 17.424L11.976 16.07L12.026 14.8L12.058 13.62L12.078 12.536V10.816L12.054 9.4C12.0515 9.30733 12.0489 9.21466 12.046 9.122C12.0329 8.71705 12.1012 8.31359 12.2471 7.93558C12.3929 7.55757 12.6132 7.21272 12.8949 6.92151C13.1766 6.6303 13.514 6.39866 13.8869 6.24036C14.2599 6.08206 14.6608 6.00032 15.066 6H25ZM24.036 10H16.068L16.08 11.084L16.078 12.42L16.062 13.502L16.032 14.682L15.986 15.95L15.92 17.302L15.88 18.01L15.78 19.478L15.652 21.018L15.578 21.81L15.41 23.442C14.9103 28.0291 14.0808 32.5742 12.928 37.042L12.67 38H27.47L27.088 36.248L26.908 35.376L26.568 33.644L26.258 31.93L25.974 30.238L25.714 28.574L25.478 26.942L25.264 25.348L25.074 23.792L24.824 21.548L24.68 20.116L24.556 18.742L24.354 16.182L24.208 13.902L24.128 12.402L24.048 10.342L24.038 10H24.036ZM31.918 20H28.688L28.794 21.056L29.036 23.25C29.566 27.748 30.366 32.85 31.574 38H35.208C34.664 36.312 34.208 34.72 33.826 33.224L33.466 31.764L33.156 30.37L32.888 29.044L32.66 27.786C32.6257 27.5862 32.5923 27.3862 32.56 27.186L32.386 26.032C32.3351 25.6726 32.2884 25.3125 32.246 24.952L32.134 23.94L32.05 23.004L31.99 22.14L31.95 21.352L31.92 20.31V20H31.918Z" fill="#FF8D00"/>
</g>
</g>
<defs>
<clipPath id="clip0_266_8168">
<rect width="48" height="48" fill="white"/>
</clipPath>
</defs>
</svg>
