<svg width="48" height="48" viewBox="0 0 48 48" fill="none" xmlns="http://www.w3.org/2000/svg">
<g id="Food / Location-2">
<path id="Combined Shape" fill-rule="evenodd" clip-rule="evenodd" d="M23.9996 42H13.9996V38H20.3821L14.3896 28.454C13.9776 27.8 13.5836 27.13 13.2316 26.444C10.6976 21.478 8.02959 14.176 14.0956 8.10604C16.7156 5.48404 20.2316 4.04004 23.9996 4.04004C27.7656 4.04004 31.2836 5.48404 33.9036 8.10404C40.0036 14.208 37.2756 21.576 34.6936 26.586C34.3896 27.178 34.0476 27.758 33.6936 28.324L27.6176 38H33.9996V42H23.9996ZM16.9236 10.932C18.7876 9.06604 21.2996 8.04004 23.9996 8.04004C26.6996 8.04004 29.2096 9.06604 31.0756 10.932C34.3976 14.256 34.4176 18.39 31.1356 24.754C30.8836 25.248 30.5956 25.73 30.3036 26.198L23.9996 36.24L17.7756 26.326C17.4276 25.772 17.0896 25.206 16.7936 24.624C13.5816 18.334 13.6216 14.238 16.9236 10.932ZM17.9996 18C17.9996 21.308 20.6916 24 23.9996 24C27.3076 24 29.9996 21.308 29.9996 18C29.9996 14.692 27.3076 12 23.9996 12C20.6916 12 17.9996 14.692 17.9996 18ZM21.9996 18C21.9996 16.898 22.8976 16 23.9996 16C25.1016 16 25.9996 16.898 25.9996 18C25.9996 19.102 25.1016 20 23.9996 20C22.8976 20 21.9996 19.102 21.9996 18Z" fill="#F2AF5C"/>
</g>
</svg>
